PathFileType	4	(X/Y/Z)	/Users/itak/Documents/Research/Walk-IL/dataset/trc/00122_00007.trc
DataRate	CameraRate	NumFrames	NumMarkers	Units	OrigDataRate	OrigDataStartFrame	OrigNumFrames
100.000000	100.000000	4	53	mm	100.000000	272	727
Frame#	Time	RPSI			LPSI			L3			STRN			T10			C7			CLAV			RBAK			LBAK			LSHO			LUPA			LAEL			LAOL			LWTS			LWPS			LFRA			LIFD			LHPS			LHTS			RSHO			RUPA			RAEL			RAOL			RWTS			RWPS			RFRA			RIFD			RHTS			RHPS			RBHD			LFHD			RFHD			LBHD			LHIP			RHIP			RASI			LASI			LKNE			LTHI			LANK			LTIP			LTOE			LMT1			LMT5			LHEE			RKNE			RTHI			RANK			RTIP			RTOE			RMT1			RMT5			RHEE			
		X1	Y1	Z1	X2	Y2	Z2	X3	Y3	Z3	X4	Y4	Z4	X5	Y5	Z5	X6	Y6	Z6	X7	Y7	Z7	X8	Y8	Z8	X9	Y9	Z9	X10	Y10	Z10	X11	Y11	Z11	X12	Y12	Z12	X13	Y13	Z13	X14	Y14	Z14	X15	Y15	Z15	X16	Y16	Z16	X17	Y17	Z17	X18	Y18	Z18	X19	Y19	Z19	X20	Y20	Z20	X21	Y21	Z21	X22	Y22	Z22	X23	Y23	Z23	X24	Y24	Z24	X25	Y25	Z25	X26	Y26	Z26	X27	Y27	Z27	X28	Y28	Z28	X29	Y29	Z29	X30	Y30	Z30	X31	Y31	Z31	X32	Y32	Z32	X33	Y33	Z33	X34	Y34	Z34	X35	Y35	Z35	X36	Y36	Z36	X37	Y37	Z37	X38	Y38	Z38	X39	Y39	Z39	X40	Y40	Z40	X41	Y41	Z41	X42	Y42	Z42	X43	Y43	Z43	X44	Y44	Z44	X45	Y45	Z45	X46	Y46	Z46	X47	Y47	Z47	X48	Y48	Z48	X49	Y49	Z49	X50	Y50	Z50	X51	Y51	Z51	X52	Y52	Z52	X53	Y53	Z53	

273	2.72	870.9994506835938	1099.68408203125	20.18952560424805	737.8204345703125	1107.516967773438	45.52494049072266	805.5057373046875	1143.613037109375	39.73344802856445	757.7958984375	1342.158081054688	-176.1772766113281	820.4048461914062	1292.565551757812	63.19965362548828	789.8091430664062	1585.552124023438	42.79911422729492	755.7313232421875	1476.764526367188	-137.5279998779297	894.6051025390625	1405.939208984375	71.79618835449219	696.4384155273438	1558.470092773438	76.77873992919922	608.628662109375	1540.8251953125	11.78300285339355	554.8731689453125	1409.542724609375	58.39864730834961	538.3265991210938	1193.091918945312	70.94628143310547	616.5554809570312	1182.964965820312	111.6591720581055	538.4417114257812	941.3953247070312	-46.90596771240234	547.724853515625	910.813232421875	36.4298210144043	528.9500122070312	1077.522827148438	56.53949356079102	557.4843139648438	749.9004516601562	-79.09745025634766	536.538330078125	837.3557739257812	6.75107479095459	523.3831176757812	851.8910522460938	-62.32218933105469	951.1920166015625	1576.347045898438	-58.38097381591797	1019.072143554688	1504.8955078125	-57.65693283081055	1051.161743164062	1211.799560546875	-56.9867057800293	958.9692993164062	1205.849487304688	-29.04632186889648	1019.246887207031	965.767578125	-193.3008575439453	1066.256469726562	953.0419921875	-126.994743347168	1064.341186523438	1139.561401367188	-83.61798095703125	1004.435119628906	770.65625	-210.1852722167969	1023.093994140625	856.4912109375	-221.7026977539062	1067.396484375	853.3990478515625	-162.8803405761719	821.3635864257812	1779.651733398438	-57.56731414794922	604.9273681640625	1783.24462890625	-106.1909790039062	702.8165893554688	1816.337524414062	-185.0423889160156	724.810791015625	1750.2568359375	31.88642120361328	610.84130859375	1022.826904296875	-31.64902877807617	958.7520751953125	1006.334594726562	-131.1667938232422	896.2362670898438	1082.440795898438	-199.3825378417969	636.9244384765625	1086.867065429688	-142.0192565917969	695.1925659179688	526.5274658203125	-153.1162719726562	652.0823974609375	662.2119140625	-97.1611328125	797.1663818359375	32.10128402709961	-142.200927734375	726.7579345703125	266.439208984375	-103.7244033813477	788.25	39.44309234619141	-373.3823547363281	841.5912475585938	37.73389434814453	-309.6766357421875	741.0851440429688	42.5593376159668	-253.6744537353516	875.1419067382812	31.77729606628418	-93.61407470703125	939.576171875	517.6575927734375	-213.5343322753906	949.1605834960938	799.62744140625	-185.6590576171875	1081.875244140625	190.0345916748047	187.0286102294922	987.5838012695312	419.8466491699219	-124.5672302246094	1006.729797363281	53.38059616088867	26.02394485473633	967.2258911132812	75.82522583007812	82.26260375976562	1087.677856445312	91.60892486572266	98.09014892578125	1037.957275390625	232.9961547851562	230.4238433837891	
274	2.73	869.1896362304688	1099.807495117188	10.77880954742432	736.3504638671875	1107.954711914062	37.95420455932617	803.8416748046875	1143.907836914062	31.19128036499023	753.072509765625	1342.725463867188	-183.7212677001953	818.6827392578125	1292.896606445312	54.80203628540039	788.0497436523438	1585.872314453125	34.76446914672852	751.86376953125	1477.377563476562	-145.1412963867188	893.0460815429688	1406.148315429688	62.56106948852539	694.8921508789062	1558.9677734375	69.84136962890625	606.7977905273438	1541.638427734375	6.080813884735107	552.7672119140625	1410.323486328125	52.40643692016602	534.9771728515625	1193.813598632812	63.11532211303711	613.2978515625	1182.844360351562	103.5731811523438	533.0026245117188	944.0386352539062	-58.37065887451172	542.1932373046875	912.1362915039062	24.504150390625	524.7667236328125	1078.5380859375	47.17716217041016	549.9493408203125	752.9603881835938	-93.49205780029297	530.1708374023438	839.2528686523438	-6.299400329589844	516.9166870117188	854.997314453125	-75.13993835449219	948.2545166015625	1576.520263671875	-68.21161651611328	1016.068359375	1505.038818359375	-68.12171173095703	1047.490844726562	1211.929931640625	-66.32241821289062	955.4974365234375	1206.458618164062	-37.81052017211914	1014.625915527344	964.7613525390625	-200.4555053710938	1061.986083984375	952.6654663085938	-134.239990234375	1060.478637695312	1139.550537109375	-92.52086639404297	999.9913330078125	769.8157958984375	-215.6386871337891	1018.4384765625	855.3084106445312	-227.9709320068359	1062.988525390625	852.7260131835938	-169.2522583007812	818.4015502929688	1780.074584960938	-66.12716674804688	601.3758544921875	1783.539794921875	-112.3599548339844	698.4071044921875	1816.594482421875	-192.3252563476562	722.8682861328125	1750.675170898438	24.44422912597656	608.0144653320312	1022.959350585938	-36.63620376586914	953.9964599609375	1006.824401855469	-142.6142883300781	890.210205078125	1082.9189453125	-209.2887725830078	632.1069946289062	1087.3056640625	-147.4120941162109	693.3856201171875	525.8851928710938	-155.2612915039062	649.9764404296875	661.9786987304688	-100.1511383056641	797.1468505859375	32.15423965454102	-142.2179260253906	726.1910400390625	266.449462890625	-104.5006942749023	788.2782592773438	39.30569458007812	-373.5096130371094	841.4979248046875	37.63468933105469	-309.6673889160156	741.0437622070312	42.43400573730469	-253.7407531738281	875.1614379882812	31.83518028259277	-93.63032531738281	929.5474243164062	520.3616333007812	-234.1395568847656	942.3475341796875	801.1923217773438	-200.7091064453125	1082.124267578125	188.0392761230469	157.7412261962891	979.5591430664062	421.5703125	-147.8161163330078	1005.760620117188	53.54080963134766	-5.447540760040283	967.4006958007812	74.38066101074219	52.22196197509766	1087.774536132812	92.40903472900391	65.83120727539062	1038.595092773438	229.0169677734375	203.3520202636719	
275	2.74	867.2957763671875	1100.005981445312	1.369135737419128	734.859619140625	1108.3388671875	30.51236724853516	802.116455078125	1144.198852539062	22.7025260925293	748.2560424804688	1343.274658203125	-191.1564483642578	816.9619140625	1293.2021484375	46.39710235595703	786.2696533203125	1586.160522460938	26.75004005432129	747.8861694335938	1477.955200195312	-152.6488189697266	891.5272216796875	1406.357788085938	53.31201171875	693.3449096679688	1559.401489257812	62.98150634765625	604.9180297851562	1542.411254882812	0.5028854608535767	550.6956787109375	1411.09423828125	46.62163162231445	531.6370239257812	1194.533325195312	55.55706405639648	610.0843505859375	1182.71142578125	95.61479187011719	527.4164428710938	946.764892578125	-69.63014221191406	536.6387939453125	913.5355834960938	12.75334453582764	520.57666015625	1079.604125976562	38.04872131347656	542.3690795898438	756.1630859375	-107.6890487670898	523.7891235351562	841.2557373046875	-19.18596458435059	510.3586730957031	858.2059936523438	-87.72006988525391	945.2293090820312	1576.714965820312	-78.10733032226562	1012.999450683594	1505.236206054688	-78.69161987304688	1043.867431640625	1212.115844726562	-75.65784454345703	952.1510620117188	1207.22314453125	-46.47954177856445	1010.0263671875	963.9134521484375	-207.7467803955078	1057.722778320312	952.3596801757812	-141.6435089111328	1056.663696289062	1139.5966796875	-101.4480972290039	995.4210205078125	769.2993774414062	-221.4280242919922	1013.682250976562	854.3272705078125	-234.4454650878906	1058.46630859375	852.1268920898438	-175.8311767578125	815.3734741210938	1780.50927734375	-74.60646820068359	597.8335571289062	1783.769287109375	-118.4284973144531	693.934326171875	1816.780029296875	-199.5256652832031	720.8978881835938	1751.124633789062	17.09200096130371	605.2163696289062	1023.00732421875	-41.52816009521484	949.1533813476562	1007.401489257812	-153.9790802001953	884.0865478515625	1083.4248046875	-219.0585021972656	627.299072265625	1087.6591796875	-152.6507873535156	691.60400390625	525.205078125	-157.3788909912109	647.9224243164062	661.7005004882812	-103.0214920043945	797.1489868164062	32.21422958374023	-142.2371826171875	725.7496337890625	266.4457092285156	-105.2552185058594	788.2620849609375	39.10895919799805	-373.7058715820312	841.4053344726562	37.54389190673828	-309.6842041015625	741.01171875	42.29692459106445	-253.8373413085938	875.2174682617188	31.91352653503418	-93.67350769042969	918.9854736328125	523.322021484375	-254.2123565673828	935.3988647460938	802.9547729492188	-215.4518280029297	1081.707763671875	185.1863861083984	127.5561599731445	970.9351806640625	423.2991027832031	-170.9213104248047	1003.652954101562	53.40081787109375	-37.9130744934082	966.5689086914062	72.60924530029297	21.17222595214844	1086.810180664062	92.66790008544922	32.57141494750977	1038.805786132812	224.1404571533203	175.4256286621094	
276	2.75	865.3220825195312	1100.264404296875	-8.048202514648438	733.3555908203125	1108.655639648438	23.18827056884766	800.3333129882812	1144.472778320312	14.25753116607666	743.341064453125	1343.784423828125	-198.4943084716797	815.2177124023438	1293.486083984375	37.994140625	784.45556640625	1586.422485351562	18.74099159240723	743.7810668945312	1478.477661132812	-160.0674285888672	890.008544921875	1406.562255859375	44.05441284179688	691.7966918945312	1559.774780273438	56.18939971923828	602.9688110351562	1543.116088867188	-4.990346908569336	548.6502685546875	1411.826049804688	41.0189323425293	528.2954711914062	1195.22314453125	48.27304077148438	606.8956298828125	1182.544189453125	87.79981231689453	521.6920166015625	949.5492553710938	-80.66645050048828	531.0784301757812	914.9736938476562	1.193490386009216	516.3766479492188	1080.670532226562	29.16684722900391	534.7573852539062	759.49853515625	-121.7127532958984	517.4197387695312	843.33203125	-31.91480445861816	503.7346496582031	861.4879760742188	-100.0521392822266	942.1092529296875	1576.900512695312	-88.07966613769531	1009.845153808594	1505.448120117188	-89.35604095458984	1040.314819335938	1212.32666015625	-85.04372406005859	948.9490966796875	1208.047485351562	-55.05888748168945	1005.404296875	963.185791015625	-215.1924438476562	1053.480102539062	952.0927734375	-149.2618408203125	1052.905639648438	1139.666259765625	-110.4540939331055	990.73681640625	769.0966796875	-227.6000213623047	1008.787475585938	853.5235595703125	-241.1526336669922	1053.8408203125	851.5756225585938	-182.6764831542969	812.2803955078125	1780.945068359375	-83.01222229003906	594.3169555664062	1783.95166015625	-124.3794403076172	689.3941040039062	1816.924072265625	-206.6322937011719	718.906982421875	1751.590209960938	9.829667091369629	602.4662475585938	1022.987915039062	-46.33686828613281	944.2208251953125	1008.041809082031	-165.2662963867188	877.869140625	1083.948486328125	-228.7096099853516	622.4862060546875	1087.921264648438	-157.7559814453125	689.8699340820312	524.5090942382812	-159.5279541015625	645.9281005859375	661.3958740234375	-105.8450775146484	797.1732788085938	32.28240585327148	-142.2607116699219	725.4010009765625	266.4305114746094	-106.0495452880859	788.2006225585938	38.83850479125977	-373.9801940917969	841.3235473632812	37.4526252746582	-309.7330017089844	740.9951782226562	42.15194702148438	-253.9691925048828	875.3086547851562	32.01456069946289	-93.74291229248047	907.906982421875	526.489501953125	-273.7119140625	928.2805786132812	804.8606567382812	-229.9118347167969	1080.511962890625	181.5338134765625	96.53366088867188	961.7079467773438	425.013671875	-193.8143157958984	1000.23779296875	53.0455322265625	-71.26078033447266	964.5665893554688	70.63820648193359	-10.80283546447754	1084.635375976562	92.45767211914062	-1.602953672409058	1038.495971679688	218.4404602050781	146.6868286132812	
